<?xml version="1.0" encoding="utf-8"?>
<!-- Generator: Adobe Illustrator 27.0.1, SVG Export Plug-In . SVG Version: 6.00 Build 0)  -->
<svg version="1.1" id="Layer_1" xmlns="http://www.w3.org/2000/svg" xmlns:xlink="http://www.w3.org/1999/xlink" x="0px" y="0px"
	 viewBox="0 0 376.2 74.7" style="enable-background:new 0 0 376.2 74.7;" xml:space="preserve">
<style type="text/css">
	.st0{fill:#FFFFFF;}
</style>
<g id="Non_Printing">
</g>
<g id="Layer_1_00000155841932569039470520000002961133314293111697_">
	<g>
		<path class="st0" d="M84.7,41.6H99V41c0-3.5-0.4-5.3-1.5-7.1c-1.2-1.8-2.9-2.8-5.4-2.8c-4.7,0-7.4,3.7-7.4,10.2V41.6 M106.5,57.7
			l4.8,7.4c-5.4,4.4-11.1,6.5-17.8,6.5c-13.6,0-22.3-9.6-22.3-24.4c0-8.5,1.8-14.1,5.9-18.7c3.9-4.3,8.6-6.4,14.8-6.4
			c5.4,0,10.6,1.8,13.6,5c4.3,4.4,6.3,10.8,6.3,20.7c0,1,0,1.4,0,2.9H84.5V51c0,7.3,3.6,11.4,10,11.4
			C98.7,62.4,102.7,60.9,106.5,57.7z"/>
		<path class="st0" d="M354.9,22.9h14.8l-14.6,20.2l18.1,27.1h-14.6l-15.8-26.7L354.9,22.9 M330.2,70.3V2.9h12.4v67.4H330.2z"/>
		<path class="st0" d="M268.5,66.8c-0.7,1-1.2,1.8-3.8,3c-1.3,0.6-3.9,1.7-7,1.7c-10.5,0-15.8-5-15.8-14.4
			c0-11.1,7.7-16.2,22.7-16.2c0.9,0,1.5,0,2.8,0.1v-2c0-5.3-1-7-5.5-7c-4,0-8.6,1.9-13.7,5.3l-5.2-8.9c3-1.9,4.3-2.6,7.6-3.9
			c4.6-1.9,8.6-2.8,12.9-2.8c7.9,0,13.4,2.9,15.2,8.2c0.6,1.9,0.8,3.4,0.8,8.5l-0.3,15.8c0,0.3,0,6.1,0,6c0,3.9,0.2,8,1.2,9.9h-10.9
			C269,69.5,268.5,66.8,268.5,66.8 M267.2,49.1h-0.5c-8.6,0-11.5,1.6-11.5,7.2c0,3.7,2.3,6.2,5.5,6.2c2.3,0,4.6-1.2,6.4-3.2
			L267.2,49.1z"/>
		<path class="st0" d="M53.9,70.3V39.2c0-5.6-0.6-6.7-3.9-6.7c-2.3,0-5.5,1.6-8.2,4v33.8H30.1V39.7c0-5.9-0.8-7.3-4.2-7.3
			c-2.3,0-5.4,1.2-8.1,3.6v34.3h-12V37.5c0-6.8-0.5-9.8-1.7-12l11.1-3c0.8,1.3,1.2,2.4,1.7,4.8C20,24,24,22.4,28.3,22.4
			c3.9,0,7.1,1.3,9.6,3.9c0.6,0.6,1.3,1.5,1.8,2.3c4.3-4.4,8.2-6.2,13.3-6.2c3.7,0,7.2,1.1,9.3,3c2.7,2.3,3.5,5,3.5,11.5v33.5
			L53.9,70.3"/>
		<path class="st0" d="M177.4,1.9c4.4,0,7.8,3.4,7.8,7.9c0,4.3-3.4,7.9-7.8,7.9c-4.3,0-7.9-3.5-7.9-7.9
			C169.6,5.4,173.1,1.9,177.4,1.9 M173.1,32c0-1.8-0.9-3-2-3c-2.6,0-4.6,3.7-7.7,11.1l-3.9-1.6c4.3-11.2,9-16.6,16-16.6
			c6.5,0,10.4,4.8,10.4,13.2c0,3.3-0.7,6.8-1.8,11l-2.2,8.7c-0.8,2.8-1,4.9-1,6c0,2.2,1,3.5,2.6,3.5c2.8,0,5.2-4,7.9-11.8l3.7,1.8
			c-3.1,11.5-8.3,17.2-15.9,17.2c-7.1,0-11.4-4.7-11.4-12.7c0-4.4,1.3-9.1,2.7-14.9l1.8-7.2C172.7,34.7,173.1,33.1,173.1,32z"/>
		<path class="st0" d="M284.5,25.4l11.1-3c0.6,0.9,1.7,3.5,1.7,5.4c2.9-2,3.4-2.4,5.4-3.5c2.5-1.3,5.7-2,8.5-2
			c5.2,0,9.9,2.8,11.3,6.8c0.6,1.7,0.9,3.8,0.9,6.7v34.5h-12.1V39.6c0-5.3-0.9-6.9-4.1-6.9c-2.5,0-5.7,1.7-8.6,4.2v33.4h-12.4V36.1
			C286.2,28.8,285.1,26.5,284.5,25.4"/>
		<path class="st0" d="M144.6,35.5c-2.3-2-4.5-3-6.7-3c-5.5,0-7.9,4.6-7.9,15.1c0,10.1,2.1,13.4,8.6,13.4c2.3,0,4.9-1.6,6.1-3V35.5
			 M147,70.3c-0.5-1-0.8-2.9-0.8-2.9c-2.7,2.2-6.9,4.1-10.5,4.1c-12,0-19.5-9.3-19.5-24c0-14.8,8.2-24.9,20.2-24.9
			c3.4,0,6.1,0.8,8.4,2.7V2.9h11.9v67.4H147z"/>
		<path class="st0" d="M224.4,38.1c-0.9-4.1-3.5-6-6.7-6s-5.4,2-7,3.8v21.8c1.6,1.5,3.6,3,6.9,3c3,0,5-1.2,6-3.7
			c1.1-2.6,1.3-5.1,1.3-10.9C225,41.9,224.9,40.1,224.4,38.1 M210.3,2.9v22.8c2.4-2.6,6-3.8,9.9-3.8c11.5,0,18.7,9.2,18.7,24
			c0,9.6-2.9,17.1-8.8,21.7c-3.2,2.6-6.4,3.7-10.3,3.7c-4.4,0-7.7-1.3-10.4-4.2c0,0-0.2,1.6-0.8,3.3h-10.4V53.2V2.9H210.3z"/>
	</g>
</g>
</svg>
